HIERARCHY
ROOT Hips
{
  OFFSET -140.559 88.3314 137.845
  CHANNELS 6 Xposition Yposition Zposition Zrotation Xrotation Yrotation
  JOINT ToSpine
  {
    OFFSET -2.69724 7.43032 -0.144315
    CHANNELS 3 Zrotation Xrotation Yrotation
    JOINT Spine
    {
      OFFSET -0.0310711 10.7595 1.96963
      CHANNELS 3 Zrotation Xrotation Yrotation
      JOINT Spine1
      {
        OFFSET 13.1342 3.43533 0.764692
        CHANNELS 3 Zrotation Xrotation Yrotation
        JOINT Neck
        {
          OFFSET 29.8703 7.82586 -0.130764
          CHANNELS 3 Zrotation Xrotation Yrotation
          JOINT Head
          {
            OFFSET 9.52751 0.295786 -0.907742
            CHANNELS 3 Zrotation Xrotation Yrotation
            End Site
            {
              OFFSET 16.4037 0.713936 2.7358
            }
          }
        }
        JOINT LeftShoulder
        {
          OFFSET 27.5574 4.95586 2.47156
          CHANNELS 3 Zrotation Xrotation Yrotation
          JOINT LeftArm
          {
            OFFSET 1.20734 -0.998971 20.1238
            CHANNELS 3 Zrotation Xrotation Yrotation
            JOINT LeftForeArm
            {
              OFFSET 26.8049 -0.0536703 -0.155908
              CHANNELS 3 Zrotation Xrotation Yrotation
              JOINT LeftHand
              {
                OFFSET 26.6817 0 0.320147
                CHANNELS 3 Zrotation Xrotation Yrotation
                End Site
                {
                  OFFSET 18.6119 0 0.382219
                }
              }
            }
          }
        }
        JOINT RightShoulder
        {
          OFFSET 27.5927 4.71444 -2.65209
          CHANNELS 3 Zrotation Xrotation Yrotation
          JOINT RightArm
          {
            OFFSET 2.83739 -1.17114 -18.7564
            CHANNELS 3 Zrotation Xrotation Yrotation
            JOINT RightForeArm
            {
              OFFSET 28.839 -0.0548439 1.22491
              CHANNELS 3 Zrotation Xrotation Yrotation
              JOINT RightHand
              {
                OFFSET 26.5114 0 -0.101894
                CHANNELS 3 Zrotation Xrotation Yrotation
                End Site
                {
                  OFFSET 18.2168 0 0
                }
              }
            }
          }
        }
      }
    }
  }
  JOINT LeftUpLeg
  {
    OFFSET -4.76168 -1.9167 -10.2353
    CHANNELS 3 Zrotation Xrotation Yrotation
    JOINT LeftLeg
    {
      OFFSET 2.55951 -42.0585 -8.02213
      CHANNELS 3 Zrotation Xrotation Yrotation
      JOINT LeftFoot
      {
        OFFSET 3.16357 -42.5282 -3.95426
        CHANNELS 3 Zrotation Xrotation Yrotation
        JOINT LeftToeBase
        {
          OFFSET 0.346054 -6.02161 12.8035
          CHANNELS 3 Zrotation Xrotation Yrotation
          End Site
          {
            OFFSET 0.134235 -1.35082 5.13018
          }
        }
      }
    }
  }
  JOINT RightUpLeg
  {
    OFFSET -4.94151 -1.41743 10.6446
    CHANNELS 3 Zrotation Xrotation Yrotation
    JOINT RightLeg
    {
      OFFSET -2.56294 -42.0364 -7.94377
      CHANNELS 3 Zrotation Xrotation Yrotation
      JOINT RightFoot
      {
        OFFSET -3.0952 -42.555 -4.02241
        CHANNELS 3 Zrotation Xrotation Yrotation
        JOINT RightToeBase
        {
          OFFSET -0.0828122 -6.13587 12.8035
          CHANNELS 3 Zrotation Xrotation Yrotation
          End Site
          {
            OFFSET -0.131328 -1.35082 5.13018
          }
        }
      }
    }
  }
}
MOTION
Frames:	10
Frame Time:	0.0333333
31.9926 91.3484 -326.695 10.6089 -66.9407 -77.3248 -70.1915 0 88.8779 83.9687 66.919 4.57512 6.6933 15.2853 4.59292 -154.87 20.1264 174.429 -149.524 58.7526 -177.338 -0.360648 -16.203 -34.0036 -62.5384 43.4244 -96.8339 11.4809 18.8777 -31.7021 0.420957 0.000575417 0.35866 -2.06064 5.68295 50.4628 -91.0911 -24.7886 71.185 2.59871 -33.3358 19.3965 0.58676 0.000331065 0.0646653 -67.9994 -1.9481 92.3235 -3.55616 40.8946 -15.0416 -1.771 -16.9091 -1.4825 7.32527 -15.7807 4.45661 -22.3703 3.65884 80.5366 1.70294 42.8667 -1.40749 -5.81249 -6.06358 1.06465 2.3442 -14.4813 -16.2863 
31.8255 91.0212 -322.854 11.0219 -66.8786 -76.4504 -70.1915 0 88.8779 83.8637 66.6046 5.63191 7.02712 15.1474 4.46669 -154.25 20.3807 174.138 -148.564 58.8813 -178.154 -0.363116 -16.1982 -34.0669 -61.683 44.2526 -95.7905 10.2228 17.0596 -31.193 0.420957 0.000575417 0.35866 -2.02963 5.67961 49.9806 -91.3927 -25.0415 71.3797 2.95018 -34.4205 19.4696 0.58676 0.000331065 0.0646653 -65.763 -0.32667 92.2573 -4.45785 47.8559 -15.3841 -2.66973 -6.62656 -0.421434 13.4711 -26.5568 5.71906 -22.7662 4.22017 80.2707 1.94843 46.6774 -2.26929 -7.25713 -8.31378 1.20947 2.57709 -12.2941 -19.7379 
31.5632 91.3846 -319.185 8.71084 -66.1758 -79.3665 -70.1915 0 88.8779 81.6785 67.3033 7.72505 6.2936 15.9522 4.86095 -153.424 20.8972 174.005 -147.848 59.2873 -179 -0.363768 -16.1744 -34.1779 -59.1213 44.7547 -96.1954 9.89737 16.6046 -31.029 0.420957 0.000575417 0.35866 -1.96449 5.66717 48.9928 -89.5421 -26.9261 72.1285 4.4591 -33.4596 20.9342 0.58676 0.000331065 0.0646653 -61.5953 0.518724 93.2246 -5.75136 54.619 -15.2961 -6.09249 2.51645 1.02709 13.6642 -26.4323 8.37359 -23.8845 4.43465 80.3625 1.74659 47.3669 -4.16155 -9.54647 -10.4338 1.32981 1.94552 -9.4526 -10.0314 
31.1243 91.7096 -315.108 7.0948 -67.9962 -80.7898 -70.1915 0 88.8779 89.5171 68.2558 0.656384 4.60656 16.8997 3.98961 -153.204 21.4859 172.909 -148.458 59.9544 -179.326 -0.284576 -15.9336 -33.772 -58.6013 45.5225 -95.2528 10.5612 17.2269 -31.7973 0.420957 0.000575417 0.35866 -2.00325 5.73417 49.2335 -83.4487 -29.1077 75.6158 3.54301 -24.6821 21.928 0.58676 0.000331065 0.0646653 -58.781 2.58232 93.6998 -8.43551 63.2132 -13.6353 -7.97634 8.08517 2.127 7.59213 -16.5917 13.1535 -28.142 5.80343 80.4125 1.70969 47.8902 -4.64964 -11.0249 -12.9274 1.34096 1.85989 -8.45035 -9.46334 
30.8514 92.0707 -311.669 7.04581 -68.5266 -80.3972 -70.1915 0 88.8779 92.6954 68.633 -1.62975 4.45559 17.4957 3.51994 -153.435 22.2065 173.723 -150.092 60.9478 -177.488 -0.329323 -16.0127 -34.2506 -60.0341 45.8687 -93.1193 10.8514 17.2513 -32.4759 0.420957 0.000575417 0.35866 -2.06975 6.13539 48.0537 -77.734 -31.7455 79.7959 5.24974 -21.1537 23.8953 0.58676 0.000331065 0.0646653 -52.4422 4.22463 93.0965 -12.3428 71.7618 -2.98614 -5.53437 5.58708 1.32618 7.13499 -15.7414 10.1544 -31.4146 6.68298 80.1805 1.63316 47.2395 -4.8627 -12.1074 -14.5036 1.31412 1.81315 -8.99846 -8.64455 
30.5587 92.9847 -308.295 5.26794 -68.5503 -82.668 -70.1915 0 88.8779 97.0802 69.3961 -5.82015 3.01893 18.5949 2.746 -153.497 22.7014 173.85 -150.677 61.5546 -176.717 -0.248925 -15.729 -34.0043 -61.0624 46.5827 -91.9574 10.812 17.0939 -32.612 0.420957 0.000575417 0.35866 -2.12398 6.45911 47.2031 -71.2059 -33.7515 85.1634 6.28914 -14.7331 26.3025 0.58676 0.000331065 0.0646653 -45.5154 4.49554 93.1286 -16.0953 76.115 4.80158 -2.4522 4.33515 0.654685 7.33836 -16.2619 14.7503 -34.509 7.41939 81.6573 1.77194 45.7391 -3.0734 -5.95622 -16.6033 1.35619 2.0824 -2.53132 -12.7298 
30.1426 93.9057 -304.12 7.01079 -68.6618 -82.2199 -70.1915 0 88.8779 89.3636 70.152 -0.0965176 5.12303 19.1278 2.86454 -152.805 23.2689 174.382 -152.294 62.3327 -174.999 -0.198789 -15.5326 -33.9273 -62.999 47.711 -90.1754 10.515 16.7687 -32.3616 0.420957 0.000575417 0.35866 -2.1626 6.77502 46.2398 -71.3011 -34.7207 86.2984 9.59239 -16.8191 30.3575 0.58676 0.000331065 0.0646653 -40.4004 3.30616 92.9946 -15.7509 75.791 4.0575 0.213826 2.59949 0.0799414 8.02761 -17.3112 15.8561 -39.372 6.52703 81.5842 1.47179 42.463 -3.24942 -11.0854 -16.8627 1.2659 1.82859 -4.74933 -10.4222 
29.8582 94.818 -300.202 4.53558 -68.5774 -85.3334 -70.1915 0 88.8779 89.0565 71.2977 0.03611 4.63352 20.49 2.20491 -152.247 23.5905 174.163 -152.69 62.6888 -174.974 -0.0100124 -14.8196 -33.4292 -64.5985 48.7951 -88.5412 11.3759 17.8393 -32.8824 0.420957 0.000575417 0.35866 -2.16218 6.74194 46.3883 -71.7574 -34.2412 86.8275 11.1664 -16.7099 34.5193 0.58676 0.000331065 0.0646653 -35.8084 2.73433 93.0848 -11.5753 72.0403 0.622128 -0.294878 -0.40586 -0.0847512 7.17447 -15.8473 11.0045 -43.8353 7.24799 83.0989 1.30211 38.5759 -2.51807 -11.9935 -15.9862 1.27296 2.00501 -6.43808 -11.5855 
29.7269 95.1821 -296.425 0.750892 -68.6575 -89.5255 -70.1915 0 88.8779 93.5329 72.4002 -4.26437 2.79358 21.898 1.80524 -152.031 23.9958 174.378 -153.785 63.1993 -174.079 0.0798899 -14.4711 -33.1795 -66.7687 49.8024 -85.8165 11.5547 17.8072 -33.347 0.420957 0.000575417 0.35866 -2.12314 6.96012 44.8517 -71.8699 -35.7015 88.3575 11.8098 -15.517 38.0552 0.58676 0.000331065 0.0646653 -32.3373 2.57926 93.535 -8.18648 65.7246 -5.06194 -2.46483 -2.79203 -0.0503286 10.068 -20.2142 17.093 -47.6944 8.16613 85.5516 0.923355 36.3221 -3.31768 -2.74798 -21.155 1.66967 1.1284 4.08218 -8.23981 
29.5972 95.4276 -292.238 0.338969 -68.2114 -90.3842 -70.1915 0 88.8779 90.7718 73.0907 -1.68582 2.82088 22.6423 1.3384 -152.405 24.4745 175.058 -156.2 63.8639 -172.038 0.0719794 -14.5112 -33.1502 -68.3076 50.4414 -83.3628 11.4678 17.123 -34.1529 0.420957 0.000575417 0.35866 -2.13478 7.20392 43.9701 -72.4443 -36.1879 89.3443 13.2253 -15.2928 41.7267 0.58676 0.000331065 0.0646653 -29.2949 1.71014 93.776 -5.30253 56.9694 -7.4413 -1.21953 -3.60054 -0.25312 10.7392 -21.0204 19.5712 -51.3933 7.68201 84.5189 0.482007 33.6093 -0.0473692 -7.61693 -19.1797 1.35995 2.04171 -3.85826 -12.297 
